<?xml version="1.0" encoding="utf-8"?>
<!DOCTYPE svg PUBLIC "-//W3C//DTD SVG 20010904//EN" "http://www.w3.org/TR/2001/REC-SVG-20010904/DTD/svg10.dtd">
<svg xmlns="http://www.w3.org/2000/svg" xml:space="preserve" xmlns:xlink="http://www.w3.org/1999/xlink" width="528" height="528" viewBox="0 0 528 528">
<desc></desc>
<rect width="528" height="528" fill="#ffffff" cx="0" cy="0" />
<defs>
<rect id="p" width="16" height="16" />
<circle id="circle" r="8" stroke-width="0" fill="000000" />
<rect id="hor" width="16" height="4" />
<rect id="ver" width="4" height="16" />
<polygon id="3d1" points="0,0 16,0 0,16" stroke-width="0" fill="000000" />
<polygon id="3d2" points="0,16 16,0 16,16" stroke-width="0" fill="#808080" />
</defs>
<g fill="#000000">
<use x="32" y="32" xlink:href="#p" />
<use x="48" y="32" xlink:href="#p" />
<use x="64" y="32" xlink:href="#p" />
<use x="80" y="32" xlink:href="#p" />
<use x="96" y="32" xlink:href="#p" />
<use x="112" y="32" xlink:href="#p" />
<use x="128" y="32" xlink:href="#p" />
<use x="160" y="32" xlink:href="#p" />
<use x="192" y="32" xlink:href="#p" />
<use x="208" y="32" xlink:href="#p" />
<use x="256" y="32" xlink:href="#p" />
<use x="272" y="32" xlink:href="#p" />
<use x="288" y="32" xlink:href="#p" />
<use x="304" y="32" xlink:href="#p" />
<use x="384" y="32" xlink:href="#p" />
<use x="400" y="32" xlink:href="#p" />
<use x="416" y="32" xlink:href="#p" />
<use x="432" y="32" xlink:href="#p" />
<use x="448" y="32" xlink:href="#p" />
<use x="464" y="32" xlink:href="#p" />
<use x="480" y="32" xlink:href="#p" />
<use x="32" y="48" xlink:href="#p" />
<use x="128" y="48" xlink:href="#p" />
<use x="192" y="48" xlink:href="#p" />
<use x="208" y="48" xlink:href="#p" />
<use x="224" y="48" xlink:href="#p" />
<use x="256" y="48" xlink:href="#p" />
<use x="272" y="48" xlink:href="#p" />
<use x="288" y="48" xlink:href="#p" />
<use x="304" y="48" xlink:href="#p" />
<use x="352" y="48" xlink:href="#p" />
<use x="384" y="48" xlink:href="#p" />
<use x="480" y="48" xlink:href="#p" />
<use x="32" y="64" xlink:href="#p" />
<use x="64" y="64" xlink:href="#p" />
<use x="80" y="64" xlink:href="#p" />
<use x="96" y="64" xlink:href="#p" />
<use x="128" y="64" xlink:href="#p" />
<use x="176" y="64" xlink:href="#p" />
<use x="224" y="64" xlink:href="#p" />
<use x="272" y="64" xlink:href="#p" />
<use x="288" y="64" xlink:href="#p" />
<use x="320" y="64" xlink:href="#p" />
<use x="384" y="64" xlink:href="#p" />
<use x="416" y="64" xlink:href="#p" />
<use x="432" y="64" xlink:href="#p" />
<use x="448" y="64" xlink:href="#p" />
<use x="480" y="64" xlink:href="#p" />
<use x="32" y="80" xlink:href="#p" />
<use x="64" y="80" xlink:href="#p" />
<use x="80" y="80" xlink:href="#p" />
<use x="96" y="80" xlink:href="#p" />
<use x="128" y="80" xlink:href="#p" />
<use x="208" y="80" xlink:href="#p" />
<use x="224" y="80" xlink:href="#p" />
<use x="240" y="80" xlink:href="#p" />
<use x="288" y="80" xlink:href="#p" />
<use x="304" y="80" xlink:href="#p" />
<use x="384" y="80" xlink:href="#p" />
<use x="416" y="80" xlink:href="#p" />
<use x="432" y="80" xlink:href="#p" />
<use x="448" y="80" xlink:href="#p" />
<use x="480" y="80" xlink:href="#p" />
<use x="32" y="96" xlink:href="#p" />
<use x="64" y="96" xlink:href="#p" />
<use x="80" y="96" xlink:href="#p" />
<use x="96" y="96" xlink:href="#p" />
<use x="128" y="96" xlink:href="#p" />
<use x="160" y="96" xlink:href="#p" />
<use x="240" y="96" xlink:href="#p" />
<use x="256" y="96" xlink:href="#p" />
<use x="304" y="96" xlink:href="#p" />
<use x="320" y="96" xlink:href="#p" />
<use x="336" y="96" xlink:href="#p" />
<use x="384" y="96" xlink:href="#p" />
<use x="416" y="96" xlink:href="#p" />
<use x="432" y="96" xlink:href="#p" />
<use x="448" y="96" xlink:href="#p" />
<use x="480" y="96" xlink:href="#p" />
<use x="32" y="112" xlink:href="#p" />
<use x="128" y="112" xlink:href="#p" />
<use x="160" y="112" xlink:href="#p" />
<use x="224" y="112" xlink:href="#p" />
<use x="240" y="112" xlink:href="#p" />
<use x="256" y="112" xlink:href="#p" />
<use x="272" y="112" xlink:href="#p" />
<use x="288" y="112" xlink:href="#p" />
<use x="304" y="112" xlink:href="#p" />
<use x="352" y="112" xlink:href="#p" />
<use x="384" y="112" xlink:href="#p" />
<use x="480" y="112" xlink:href="#p" />
<use x="32" y="128" xlink:href="#p" />
<use x="48" y="128" xlink:href="#p" />
<use x="64" y="128" xlink:href="#p" />
<use x="80" y="128" xlink:href="#p" />
<use x="96" y="128" xlink:href="#p" />
<use x="112" y="128" xlink:href="#p" />
<use x="128" y="128" xlink:href="#p" />
<use x="160" y="128" xlink:href="#p" />
<use x="192" y="128" xlink:href="#p" />
<use x="224" y="128" xlink:href="#p" />
<use x="256" y="128" xlink:href="#p" />
<use x="288" y="128" xlink:href="#p" />
<use x="320" y="128" xlink:href="#p" />
<use x="352" y="128" xlink:href="#p" />
<use x="384" y="128" xlink:href="#p" />
<use x="400" y="128" xlink:href="#p" />
<use x="416" y="128" xlink:href="#p" />
<use x="432" y="128" xlink:href="#p" />
<use x="448" y="128" xlink:href="#p" />
<use x="464" y="128" xlink:href="#p" />
<use x="480" y="128" xlink:href="#p" />
<use x="176" y="144" xlink:href="#p" />
<use x="192" y="144" xlink:href="#p" />
<use x="208" y="144" xlink:href="#p" />
<use x="224" y="144" xlink:href="#p" />
<use x="240" y="144" xlink:href="#p" />
<use x="304" y="144" xlink:href="#p" />
<use x="320" y="144" xlink:href="#p" />
<use x="48" y="160" xlink:href="#p" />
<use x="64" y="160" xlink:href="#p" />
<use x="80" y="160" xlink:href="#p" />
<use x="96" y="160" xlink:href="#p" />
<use x="112" y="160" xlink:href="#p" />
<use x="128" y="160" xlink:href="#p" />
<use x="144" y="160" xlink:href="#p" />
<use x="176" y="160" xlink:href="#p" />
<use x="208" y="160" xlink:href="#p" />
<use x="224" y="160" xlink:href="#p" />
<use x="272" y="160" xlink:href="#p" />
<use x="288" y="160" xlink:href="#p" />
<use x="400" y="160" xlink:href="#p" />
<use x="416" y="160" xlink:href="#p" />
<use x="480" y="160" xlink:href="#p" />
<use x="32" y="176" xlink:href="#p" />
<use x="112" y="176" xlink:href="#p" />
<use x="160" y="176" xlink:href="#p" />
<use x="176" y="176" xlink:href="#p" />
<use x="192" y="176" xlink:href="#p" />
<use x="224" y="176" xlink:href="#p" />
<use x="240" y="176" xlink:href="#p" />
<use x="256" y="176" xlink:href="#p" />
<use x="272" y="176" xlink:href="#p" />
<use x="288" y="176" xlink:href="#p" />
<use x="304" y="176" xlink:href="#p" />
<use x="320" y="176" xlink:href="#p" />
<use x="352" y="176" xlink:href="#p" />
<use x="368" y="176" xlink:href="#p" />
<use x="416" y="176" xlink:href="#p" />
<use x="448" y="176" xlink:href="#p" />
<use x="480" y="176" xlink:href="#p" />
<use x="32" y="192" xlink:href="#p" />
<use x="48" y="192" xlink:href="#p" />
<use x="64" y="192" xlink:href="#p" />
<use x="128" y="192" xlink:href="#p" />
<use x="144" y="192" xlink:href="#p" />
<use x="160" y="192" xlink:href="#p" />
<use x="192" y="192" xlink:href="#p" />
<use x="224" y="192" xlink:href="#p" />
<use x="240" y="192" xlink:href="#p" />
<use x="336" y="192" xlink:href="#p" />
<use x="368" y="192" xlink:href="#p" />
<use x="384" y="192" xlink:href="#p" />
<use x="432" y="192" xlink:href="#p" />
<use x="32" y="208" xlink:href="#p" />
<use x="48" y="208" xlink:href="#p" />
<use x="80" y="208" xlink:href="#p" />
<use x="96" y="208" xlink:href="#p" />
<use x="144" y="208" xlink:href="#p" />
<use x="160" y="208" xlink:href="#p" />
<use x="240" y="208" xlink:href="#p" />
<use x="336" y="208" xlink:href="#p" />
<use x="352" y="208" xlink:href="#p" />
<use x="368" y="208" xlink:href="#p" />
<use x="384" y="208" xlink:href="#p" />
<use x="464" y="208" xlink:href="#p" />
<use x="96" y="224" xlink:href="#p" />
<use x="112" y="224" xlink:href="#p" />
<use x="128" y="224" xlink:href="#p" />
<use x="176" y="224" xlink:href="#p" />
<use x="192" y="224" xlink:href="#p" />
<use x="224" y="224" xlink:href="#p" />
<use x="240" y="224" xlink:href="#p" />
<use x="288" y="224" xlink:href="#p" />
<use x="304" y="224" xlink:href="#p" />
<use x="336" y="224" xlink:href="#p" />
<use x="368" y="224" xlink:href="#p" />
<use x="400" y="224" xlink:href="#p" />
<use x="448" y="224" xlink:href="#p" />
<use x="464" y="224" xlink:href="#p" />
<use x="480" y="224" xlink:href="#p" />
<use x="48" y="240" xlink:href="#p" />
<use x="112" y="240" xlink:href="#p" />
<use x="160" y="240" xlink:href="#p" />
<use x="176" y="240" xlink:href="#p" />
<use x="192" y="240" xlink:href="#p" />
<use x="256" y="240" xlink:href="#p" />
<use x="272" y="240" xlink:href="#p" />
<use x="288" y="240" xlink:href="#p" />
<use x="320" y="240" xlink:href="#p" />
<use x="336" y="240" xlink:href="#p" />
<use x="352" y="240" xlink:href="#p" />
<use x="368" y="240" xlink:href="#p" />
<use x="384" y="240" xlink:href="#p" />
<use x="416" y="240" xlink:href="#p" />
<use x="432" y="240" xlink:href="#p" />
<use x="32" y="256" xlink:href="#p" />
<use x="80" y="256" xlink:href="#p" />
<use x="128" y="256" xlink:href="#p" />
<use x="160" y="256" xlink:href="#p" />
<use x="192" y="256" xlink:href="#p" />
<use x="240" y="256" xlink:href="#p" />
<use x="256" y="256" xlink:href="#p" />
<use x="288" y="256" xlink:href="#p" />
<use x="320" y="256" xlink:href="#p" />
<use x="352" y="256" xlink:href="#p" />
<use x="368" y="256" xlink:href="#p" />
<use x="400" y="256" xlink:href="#p" />
<use x="464" y="256" xlink:href="#p" />
<use x="32" y="272" xlink:href="#p" />
<use x="48" y="272" xlink:href="#p" />
<use x="96" y="272" xlink:href="#p" />
<use x="112" y="272" xlink:href="#p" />
<use x="144" y="272" xlink:href="#p" />
<use x="160" y="272" xlink:href="#p" />
<use x="208" y="272" xlink:href="#p" />
<use x="256" y="272" xlink:href="#p" />
<use x="272" y="272" xlink:href="#p" />
<use x="336" y="272" xlink:href="#p" />
<use x="352" y="272" xlink:href="#p" />
<use x="368" y="272" xlink:href="#p" />
<use x="416" y="272" xlink:href="#p" />
<use x="432" y="272" xlink:href="#p" />
<use x="464" y="272" xlink:href="#p" />
<use x="480" y="272" xlink:href="#p" />
<use x="64" y="288" xlink:href="#p" />
<use x="112" y="288" xlink:href="#p" />
<use x="128" y="288" xlink:href="#p" />
<use x="144" y="288" xlink:href="#p" />
<use x="192" y="288" xlink:href="#p" />
<use x="208" y="288" xlink:href="#p" />
<use x="272" y="288" xlink:href="#p" />
<use x="320" y="288" xlink:href="#p" />
<use x="352" y="288" xlink:href="#p" />
<use x="368" y="288" xlink:href="#p" />
<use x="400" y="288" xlink:href="#p" />
<use x="432" y="288" xlink:href="#p" />
<use x="448" y="288" xlink:href="#p" />
<use x="32" y="304" xlink:href="#p" />
<use x="48" y="304" xlink:href="#p" />
<use x="64" y="304" xlink:href="#p" />
<use x="160" y="304" xlink:href="#p" />
<use x="176" y="304" xlink:href="#p" />
<use x="192" y="304" xlink:href="#p" />
<use x="208" y="304" xlink:href="#p" />
<use x="224" y="304" xlink:href="#p" />
<use x="272" y="304" xlink:href="#p" />
<use x="288" y="304" xlink:href="#p" />
<use x="368" y="304" xlink:href="#p" />
<use x="400" y="304" xlink:href="#p" />
<use x="416" y="304" xlink:href="#p" />
<use x="464" y="304" xlink:href="#p" />
<use x="480" y="304" xlink:href="#p" />
<use x="32" y="320" xlink:href="#p" />
<use x="64" y="320" xlink:href="#p" />
<use x="96" y="320" xlink:href="#p" />
<use x="128" y="320" xlink:href="#p" />
<use x="144" y="320" xlink:href="#p" />
<use x="160" y="320" xlink:href="#p" />
<use x="192" y="320" xlink:href="#p" />
<use x="208" y="320" xlink:href="#p" />
<use x="224" y="320" xlink:href="#p" />
<use x="256" y="320" xlink:href="#p" />
<use x="352" y="320" xlink:href="#p" />
<use x="384" y="320" xlink:href="#p" />
<use x="400" y="320" xlink:href="#p" />
<use x="432" y="320" xlink:href="#p" />
<use x="448" y="320" xlink:href="#p" />
<use x="32" y="336" xlink:href="#p" />
<use x="80" y="336" xlink:href="#p" />
<use x="112" y="336" xlink:href="#p" />
<use x="176" y="336" xlink:href="#p" />
<use x="192" y="336" xlink:href="#p" />
<use x="224" y="336" xlink:href="#p" />
<use x="256" y="336" xlink:href="#p" />
<use x="288" y="336" xlink:href="#p" />
<use x="384" y="336" xlink:href="#p" />
<use x="400" y="336" xlink:href="#p" />
<use x="416" y="336" xlink:href="#p" />
<use x="448" y="336" xlink:href="#p" />
<use x="32" y="352" xlink:href="#p" />
<use x="64" y="352" xlink:href="#p" />
<use x="80" y="352" xlink:href="#p" />
<use x="96" y="352" xlink:href="#p" />
<use x="128" y="352" xlink:href="#p" />
<use x="144" y="352" xlink:href="#p" />
<use x="160" y="352" xlink:href="#p" />
<use x="224" y="352" xlink:href="#p" />
<use x="256" y="352" xlink:href="#p" />
<use x="304" y="352" xlink:href="#p" />
<use x="320" y="352" xlink:href="#p" />
<use x="352" y="352" xlink:href="#p" />
<use x="368" y="352" xlink:href="#p" />
<use x="384" y="352" xlink:href="#p" />
<use x="400" y="352" xlink:href="#p" />
<use x="416" y="352" xlink:href="#p" />
<use x="432" y="352" xlink:href="#p" />
<use x="480" y="352" xlink:href="#p" />
<use x="160" y="368" xlink:href="#p" />
<use x="208" y="368" xlink:href="#p" />
<use x="224" y="368" xlink:href="#p" />
<use x="256" y="368" xlink:href="#p" />
<use x="288" y="368" xlink:href="#p" />
<use x="304" y="368" xlink:href="#p" />
<use x="320" y="368" xlink:href="#p" />
<use x="336" y="368" xlink:href="#p" />
<use x="352" y="368" xlink:href="#p" />
<use x="416" y="368" xlink:href="#p" />
<use x="432" y="368" xlink:href="#p" />
<use x="464" y="368" xlink:href="#p" />
<use x="32" y="384" xlink:href="#p" />
<use x="48" y="384" xlink:href="#p" />
<use x="64" y="384" xlink:href="#p" />
<use x="80" y="384" xlink:href="#p" />
<use x="96" y="384" xlink:href="#p" />
<use x="112" y="384" xlink:href="#p" />
<use x="128" y="384" xlink:href="#p" />
<use x="160" y="384" xlink:href="#p" />
<use x="208" y="384" xlink:href="#p" />
<use x="224" y="384" xlink:href="#p" />
<use x="272" y="384" xlink:href="#p" />
<use x="288" y="384" xlink:href="#p" />
<use x="304" y="384" xlink:href="#p" />
<use x="336" y="384" xlink:href="#p" />
<use x="352" y="384" xlink:href="#p" />
<use x="384" y="384" xlink:href="#p" />
<use x="416" y="384" xlink:href="#p" />
<use x="464" y="384" xlink:href="#p" />
<use x="32" y="400" xlink:href="#p" />
<use x="128" y="400" xlink:href="#p" />
<use x="160" y="400" xlink:href="#p" />
<use x="192" y="400" xlink:href="#p" />
<use x="208" y="400" xlink:href="#p" />
<use x="224" y="400" xlink:href="#p" />
<use x="272" y="400" xlink:href="#p" />
<use x="288" y="400" xlink:href="#p" />
<use x="304" y="400" xlink:href="#p" />
<use x="320" y="400" xlink:href="#p" />
<use x="336" y="400" xlink:href="#p" />
<use x="352" y="400" xlink:href="#p" />
<use x="416" y="400" xlink:href="#p" />
<use x="432" y="400" xlink:href="#p" />
<use x="464" y="400" xlink:href="#p" />
<use x="480" y="400" xlink:href="#p" />
<use x="32" y="416" xlink:href="#p" />
<use x="64" y="416" xlink:href="#p" />
<use x="80" y="416" xlink:href="#p" />
<use x="96" y="416" xlink:href="#p" />
<use x="128" y="416" xlink:href="#p" />
<use x="160" y="416" xlink:href="#p" />
<use x="192" y="416" xlink:href="#p" />
<use x="224" y="416" xlink:href="#p" />
<use x="240" y="416" xlink:href="#p" />
<use x="288" y="416" xlink:href="#p" />
<use x="352" y="416" xlink:href="#p" />
<use x="368" y="416" xlink:href="#p" />
<use x="384" y="416" xlink:href="#p" />
<use x="400" y="416" xlink:href="#p" />
<use x="416" y="416" xlink:href="#p" />
<use x="432" y="416" xlink:href="#p" />
<use x="448" y="416" xlink:href="#p" />
<use x="464" y="416" xlink:href="#p" />
<use x="32" y="432" xlink:href="#p" />
<use x="64" y="432" xlink:href="#p" />
<use x="80" y="432" xlink:href="#p" />
<use x="96" y="432" xlink:href="#p" />
<use x="128" y="432" xlink:href="#p" />
<use x="160" y="432" xlink:href="#p" />
<use x="176" y="432" xlink:href="#p" />
<use x="192" y="432" xlink:href="#p" />
<use x="224" y="432" xlink:href="#p" />
<use x="272" y="432" xlink:href="#p" />
<use x="320" y="432" xlink:href="#p" />
<use x="336" y="432" xlink:href="#p" />
<use x="352" y="432" xlink:href="#p" />
<use x="368" y="432" xlink:href="#p" />
<use x="400" y="432" xlink:href="#p" />
<use x="448" y="432" xlink:href="#p" />
<use x="464" y="432" xlink:href="#p" />
<use x="32" y="448" xlink:href="#p" />
<use x="64" y="448" xlink:href="#p" />
<use x="80" y="448" xlink:href="#p" />
<use x="96" y="448" xlink:href="#p" />
<use x="128" y="448" xlink:href="#p" />
<use x="160" y="448" xlink:href="#p" />
<use x="176" y="448" xlink:href="#p" />
<use x="224" y="448" xlink:href="#p" />
<use x="272" y="448" xlink:href="#p" />
<use x="288" y="448" xlink:href="#p" />
<use x="320" y="448" xlink:href="#p" />
<use x="336" y="448" xlink:href="#p" />
<use x="352" y="448" xlink:href="#p" />
<use x="368" y="448" xlink:href="#p" />
<use x="384" y="448" xlink:href="#p" />
<use x="400" y="448" xlink:href="#p" />
<use x="416" y="448" xlink:href="#p" />
<use x="432" y="448" xlink:href="#p" />
<use x="448" y="448" xlink:href="#p" />
<use x="464" y="448" xlink:href="#p" />
<use x="32" y="464" xlink:href="#p" />
<use x="128" y="464" xlink:href="#p" />
<use x="160" y="464" xlink:href="#p" />
<use x="192" y="464" xlink:href="#p" />
<use x="272" y="464" xlink:href="#p" />
<use x="320" y="464" xlink:href="#p" />
<use x="384" y="464" xlink:href="#p" />
<use x="416" y="464" xlink:href="#p" />
<use x="448" y="464" xlink:href="#p" />
<use x="464" y="464" xlink:href="#p" />
<use x="32" y="480" xlink:href="#p" />
<use x="48" y="480" xlink:href="#p" />
<use x="64" y="480" xlink:href="#p" />
<use x="80" y="480" xlink:href="#p" />
<use x="96" y="480" xlink:href="#p" />
<use x="112" y="480" xlink:href="#p" />
<use x="128" y="480" xlink:href="#p" />
<use x="208" y="480" xlink:href="#p" />
<use x="224" y="480" xlink:href="#p" />
<use x="240" y="480" xlink:href="#p" />
<use x="272" y="480" xlink:href="#p" />
<use x="320" y="480" xlink:href="#p" />
<use x="336" y="480" xlink:href="#p" />
<use x="352" y="480" xlink:href="#p" />
<use x="368" y="480" xlink:href="#p" />
<use x="384" y="480" xlink:href="#p" />
<use x="416" y="480" xlink:href="#p" />
<use x="448" y="480" xlink:href="#p" />
</g>
</svg>